<svg xmlns="http://www.w3.org/2000/svg" xmlns:xlink="http://www.w3.org/1999/xlink" width="97" zoomAndPan="magnify" viewBox="0 0 72.75 53.25" height="71" preserveAspectRatio="xMidYMid meet" version="1.0"><defs><clipPath id="f9b22c037d"><path d="M 0.382812 42.105469 L 71.707031 42.105469 L 71.707031 51.960938 L 0.382812 51.960938 Z M 0.382812 42.105469 " clip-rule="nonzero"/></clipPath><clipPath id="9de033be64"><path d="M 5.703125 42.105469 C 4.730469 42.105469 3.941406 42.894531 3.941406 43.867188 C 3.941406 44.835938 3.15625 45.625 2.183594 45.625 L 2.140625 45.625 C 1.171875 45.625 0.382812 46.410156 0.382812 47.382812 L 0.382812 50.179688 C 0.382812 51.070312 1.046875 51.8125 1.914062 51.921875 L 70.167969 51.921875 C 71.03125 51.8125 71.699219 51.074219 71.699219 50.179688 L 71.699219 47.382812 C 71.699219 46.410156 70.910156 45.625 69.941406 45.625 L 69.898438 45.625 C 68.929688 45.625 68.140625 44.835938 68.140625 43.863281 C 68.140625 42.894531 67.355469 42.105469 66.382812 42.105469 Z M 5.703125 42.105469 " clip-rule="nonzero"/></clipPath><clipPath id="f24ef7c826"><path d="M 7.128906 0 L 64.835938 0 L 64.835938 40.804688 L 7.128906 40.804688 Z M 7.128906 0 " clip-rule="nonzero"/></clipPath><clipPath id="45b5a304d3"><path d="M 8.402344 40.730469 L 63.683594 40.730469 C 64.59375 40.730469 65.144531 39.71875 64.644531 38.957031 C 64.550781 38.8125 64.429688 38.691406 64.285156 38.605469 C 64.144531 38.515625 63.984375 38.460938 63.816406 38.441406 C 63.105469 24.253906 51.765625 12.871094 37.597656 12.089844 L 37.597656 10.210938 C 39.003906 9.863281 39.988281 9.066406 39.988281 8.136719 C 39.988281 7.207031 39.003906 6.40625 37.597656 6.0625 L 37.597656 4.085938 L 43.339844 4.085938 C 43.339844 1.828125 40.074219 0 36.039062 0 C 32.007812 0 28.742188 1.828125 28.742188 4.082031 L 34.484375 4.082031 L 34.484375 6.058594 C 33.078125 6.40625 32.09375 7.203125 32.09375 8.132812 C 32.09375 9.0625 33.078125 9.859375 34.484375 10.207031 L 34.484375 12.085938 C 20.316406 12.867188 8.976562 24.253906 8.265625 38.4375 C 7.929688 38.476562 7.625 38.664062 7.4375 38.953125 C 7.308594 39.148438 7.25 39.367188 7.25 39.574219 C 7.253906 40.175781 7.726562 40.730469 8.402344 40.730469 Z M 12.183594 29.90625 C 13.472656 26.863281 15.316406 24.128906 17.660156 21.78125 C 20.007812 19.433594 22.742188 17.589844 25.785156 16.304688 C 28.136719 15.3125 30.597656 14.683594 33.128906 14.429688 L 32.523438 14.675781 C 29.132812 16.113281 26.082031 18.164062 23.464844 20.78125 C 20.851562 23.398438 18.796875 26.445312 17.359375 29.835938 C 16.304688 32.324219 15.621094 34.921875 15.3125 37.597656 L 10.273438 37.597656 C 10.503906 34.941406 11.144531 32.363281 12.183594 29.90625 Z M 12.183594 29.90625 " clip-rule="nonzero"/></clipPath></defs><g clip-path="url(#f9b22c037d)"><g clip-path="url(#9de033be64)"><path fill="#e46e00" d="M 0.382812 42.105469 L 71.707031 42.105469 L 71.707031 51.921875 L 0.382812 51.921875 Z M 0.382812 42.105469 " fill-opacity="1" fill-rule="nonzero"/></g></g><g clip-path="url(#f24ef7c826)"><g clip-path="url(#45b5a304d3)"><path fill="#e46e00" d="M 7.25 0 L 64.835938 0 L 64.835938 40.683594 L 7.25 40.683594 Z M 7.25 0 " fill-opacity="1" fill-rule="nonzero"/></g></g></svg>