<svg xmlns="http://www.w3.org/2000/svg" xmlns:xlink="http://www.w3.org/1999/xlink" width="6627" zoomAndPan="magnify" viewBox="0 0 4970.25 1418.999941" height="1892" preserveAspectRatio="xMidYMid meet" version="1.0"><defs><g/><clipPath id="8055ceff45"><path d="M 2232.457031 423.285156 L 2822.523438 423.285156 L 2822.523438 504.816406 L 2232.457031 504.816406 Z M 2232.457031 423.285156 " clip-rule="nonzero"/></clipPath><clipPath id="3adb19a75f"><path d="M 2276.46875 423.285156 C 2268.441406 423.285156 2261.910156 429.792969 2261.910156 437.839844 C 2261.910156 445.871094 2255.402344 452.398438 2247.355469 452.398438 L 2247.003906 452.398438 C 2238.984375 452.390625 2232.457031 458.898438 2232.457031 466.949219 L 2232.457031 490.0625 C 2232.457031 497.453125 2237.964844 503.570312 2245.125 504.5 L 2809.765625 504.5 C 2816.90625 503.582031 2822.433594 497.472656 2822.433594 490.0625 L 2822.433594 466.949219 C 2822.433594 458.898438 2815.925781 452.390625 2807.90625 452.390625 L 2807.558594 452.390625 C 2799.527344 452.390625 2793 445.878906 2793 437.832031 C 2793.011719 429.8125 2786.5 423.285156 2778.453125 423.285156 Z M 2276.46875 423.285156 " clip-rule="nonzero"/></clipPath><clipPath id="4354bd91e4"><path d="M 2289 74.949219 L 2765.652344 74.949219 L 2765.652344 412 L 2289 412 Z M 2289 74.949219 " clip-rule="nonzero"/></clipPath><clipPath id="2280d6893c"><path d="M 2298.820312 411.886719 L 2756.121094 411.886719 C 2763.660156 411.886719 2768.207031 403.539062 2764.097656 397.21875 C 2763.320312 396.019531 2762.296875 395.03125 2761.117188 394.308594 C 2759.9375 393.570312 2758.609375 393.109375 2757.21875 392.949219 C 2751.339844 275.609375 2657.523438 181.421875 2540.324219 174.964844 L 2540.324219 159.417969 C 2551.949219 156.554688 2560.109375 149.957031 2560.109375 142.257812 C 2560.109375 134.558594 2551.96875 127.960938 2540.324219 125.101562 L 2540.324219 108.742188 L 2587.84375 108.742188 C 2587.84375 90.085938 2560.808594 74.949219 2527.453125 74.949219 C 2494.097656 74.949219 2467.0625 90.078125 2467.0625 108.722656 L 2514.585938 108.722656 L 2514.585938 125.070312 C 2502.957031 127.929688 2494.800781 134.53125 2494.800781 142.230469 C 2494.800781 149.925781 2502.9375 156.527344 2514.585938 159.386719 L 2514.585938 174.933594 C 2397.382812 181.402344 2303.566406 275.589844 2297.6875 392.929688 C 2294.898438 393.25 2292.359375 394.820312 2290.808594 397.199219 C 2289.75 398.828125 2289.269531 400.609375 2289.269531 402.339844 C 2289.289062 407.296875 2293.21875 411.886719 2298.820312 411.886719 Z M 2330.09375 322.359375 C 2340.753906 297.195312 2356 274.570312 2375.398438 255.140625 C 2394.824219 235.714844 2417.421875 220.464844 2442.617188 209.839844 C 2462.0625 201.628906 2482.410156 196.410156 2503.347656 194.3125 L 2498.339844 196.359375 C 2470.292969 208.238281 2445.078125 225.214844 2423.421875 246.871094 C 2401.785156 268.53125 2384.785156 293.726562 2372.90625 321.769531 C 2364.1875 342.367188 2358.539062 363.863281 2355.980469 385.992188 L 2314.277344 385.992188 C 2316.1875 364.003906 2321.496094 342.667969 2330.105469 322.351562 Z M 2330.09375 322.359375 " clip-rule="nonzero"/></clipPath></defs><g fill="#e46e00" fill-opacity="1"><g transform="translate(276.587558, 968.672882)"><g><path d="M 36.796875 -398.234375 L 4.09375 -398.234375 L 36.796875 -545.421875 L 183.984375 -545.421875 L 261.671875 -418.671875 L 339.359375 -545.421875 L 486.546875 -545.421875 L 486.546875 0 L 339.359375 0 L 339.359375 -305.828125 L 261.671875 -180.71875 L 183.984375 -305.828125 L 183.984375 0 L 36.796875 0 Z M 36.796875 -398.234375 "/></g></g></g><g fill="#e46e00" fill-opacity="1"><g transform="translate(799.907983, 968.672882)"><g><path d="M 171.71875 -1.640625 C 146.644531 -2.722656 127.425781 -5.304688 114.0625 -9.390625 C 100.707031 -13.484375 88.035156 -20.984375 76.046875 -31.890625 C 55.878906 -49.878906 40.613281 -73.316406 30.25 -102.203125 C 19.894531 -131.097656 14.71875 -164.351562 14.71875 -201.96875 C 14.71875 -231.957031 18.257812 -259.21875 25.34375 -283.75 C 32.4375 -308.28125 42.523438 -329.265625 55.609375 -346.703125 C 68.691406 -364.148438 84.632812 -377.507812 103.4375 -386.78125 C 122.25 -396.050781 143.101562 -400.6875 166 -400.6875 C 178.53125 -400.6875 189.835938 -399.320312 199.921875 -396.59375 C 210.015625 -393.863281 220.515625 -389.503906 231.421875 -383.515625 L 231.421875 -398.234375 L 360.609375 -398.234375 L 360.609375 -130.828125 L 389.234375 -130.828125 L 360.609375 0 L 226.515625 0 L 226.515625 -120.203125 L 199.515625 0 Z M 226.515625 -207.703125 C 226.515625 -217.515625 226.375 -225.554688 226.09375 -231.828125 C 225.820312 -238.097656 225.273438 -243.273438 224.453125 -247.359375 C 223.640625 -251.453125 222.6875 -254.722656 221.59375 -257.171875 C 220.507812 -259.628906 218.878906 -261.945312 216.703125 -264.125 C 210.703125 -270.664062 203.335938 -273.9375 194.609375 -273.9375 C 182.078125 -273.9375 171.992188 -267.53125 164.359375 -254.71875 C 156.722656 -241.90625 152.90625 -225.140625 152.90625 -204.421875 C 152.90625 -154.816406 172.257812 -130.015625 210.96875 -130.015625 C 212.0625 -130.015625 214.242188 -130.015625 217.515625 -130.015625 C 220.785156 -130.015625 223.785156 -130.285156 226.515625 -130.828125 Z M 226.515625 -207.703125 "/></g></g></g><g fill="#e46e00" fill-opacity="1"><g transform="translate(1193.216012, 968.672882)"><g><path d="M 34.34375 -425.21875 L 4.09375 -425.21875 L 34.34375 -558.5 L 168.453125 -558.5 L 168.453125 -130.828125 L 197.0625 -130.828125 L 168.453125 0 L 34.34375 0 Z M 34.34375 -425.21875 "/></g></g></g><g fill="#e46e00" fill-opacity="1"><g transform="translate(1394.367303, 968.672882)"><g><path d="M 171.71875 -1.640625 C 146.644531 -2.722656 127.425781 -5.304688 114.0625 -9.390625 C 100.707031 -13.484375 88.035156 -20.984375 76.046875 -31.890625 C 55.878906 -49.878906 40.613281 -73.316406 30.25 -102.203125 C 19.894531 -131.097656 14.71875 -164.351562 14.71875 -201.96875 C 14.71875 -231.957031 18.257812 -259.21875 25.34375 -283.75 C 32.4375 -308.28125 42.523438 -329.265625 55.609375 -346.703125 C 68.691406 -364.148438 84.632812 -377.507812 103.4375 -386.78125 C 122.25 -396.050781 143.101562 -400.6875 166 -400.6875 C 178.53125 -400.6875 189.835938 -399.320312 199.921875 -396.59375 C 210.015625 -393.863281 220.515625 -389.503906 231.421875 -383.515625 L 231.421875 -398.234375 L 360.609375 -398.234375 L 360.609375 -130.828125 L 389.234375 -130.828125 L 360.609375 0 L 226.515625 0 L 226.515625 -120.203125 L 199.515625 0 Z M 226.515625 -207.703125 C 226.515625 -217.515625 226.375 -225.554688 226.09375 -231.828125 C 225.820312 -238.097656 225.273438 -243.273438 224.453125 -247.359375 C 223.640625 -251.453125 222.6875 -254.722656 221.59375 -257.171875 C 220.507812 -259.628906 218.878906 -261.945312 216.703125 -264.125 C 210.703125 -270.664062 203.335938 -273.9375 194.609375 -273.9375 C 182.078125 -273.9375 171.992188 -267.53125 164.359375 -254.71875 C 156.722656 -241.90625 152.90625 -225.140625 152.90625 -204.421875 C 152.90625 -154.816406 172.257812 -130.015625 210.96875 -130.015625 C 212.0625 -130.015625 214.242188 -130.015625 217.515625 -130.015625 C 220.785156 -130.015625 223.785156 -130.285156 226.515625 -130.828125 Z M 226.515625 -207.703125 "/></g></g></g><g fill="#e46e00" fill-opacity="1"><g transform="translate(1787.675331, 968.672882)"><g><path d="M 34.34375 -425.21875 L 4.09375 -425.21875 L 34.34375 -558.5 L 168.453125 -558.5 L 168.453125 -278.03125 L 193.796875 -398.234375 C 211.242188 -398.234375 225.828125 -397.820312 237.546875 -397 C 249.265625 -396.1875 259.484375 -394.820312 268.203125 -392.90625 C 276.929688 -391 284.566406 -388.546875 291.109375 -385.546875 C 297.648438 -382.554688 304.191406 -378.609375 310.734375 -373.703125 C 333.628906 -356.796875 351.070312 -333.351562 363.0625 -303.375 C 375.0625 -273.394531 381.0625 -237.957031 381.0625 -197.0625 C 381.0625 -166.539062 377.515625 -139.015625 370.421875 -114.484375 C 363.335938 -89.953125 353.390625 -68.960938 340.578125 -51.515625 C 327.765625 -34.066406 312.226562 -20.707031 293.96875 -11.4375 C 275.707031 -2.175781 255.128906 2.453125 232.234375 2.453125 C 220.242188 2.453125 209.335938 1.226562 199.515625 -1.21875 C 189.703125 -3.675781 179.347656 -7.628906 168.453125 -13.078125 L 168.453125 0 L 34.34375 0 Z M 168.453125 -179.078125 C 168.453125 -162.722656 168.859375 -152.09375 169.671875 -147.1875 C 170.492188 -142.28125 172.8125 -137.921875 176.625 -134.109375 C 181.53125 -128.109375 189.160156 -125.109375 199.515625 -125.109375 C 213.148438 -125.109375 223.78125 -131.101562 231.40625 -143.09375 C 239.039062 -155.09375 242.859375 -172.265625 242.859375 -194.609375 C 242.859375 -220.785156 238.5 -239.050781 229.78125 -249.40625 C 221.0625 -259.757812 206.066406 -264.9375 184.796875 -264.9375 C 182.078125 -264.9375 179.625 -264.9375 177.4375 -264.9375 C 175.257812 -264.9375 172.265625 -264.664062 168.453125 -264.125 Z M 168.453125 -179.078125 "/></g></g></g><g fill="#e46e00" fill-opacity="1"><g transform="translate(2183.436381, 968.672882)"><g><path d="M 171.71875 -1.640625 C 146.644531 -2.722656 127.425781 -5.304688 114.0625 -9.390625 C 100.707031 -13.484375 88.035156 -20.984375 76.046875 -31.890625 C 55.878906 -49.878906 40.613281 -73.316406 30.25 -102.203125 C 19.894531 -131.097656 14.71875 -164.351562 14.71875 -201.96875 C 14.71875 -231.957031 18.257812 -259.21875 25.34375 -283.75 C 32.4375 -308.28125 42.523438 -329.265625 55.609375 -346.703125 C 68.691406 -364.148438 84.632812 -377.507812 103.4375 -386.78125 C 122.25 -396.050781 143.101562 -400.6875 166 -400.6875 C 178.53125 -400.6875 189.835938 -399.320312 199.921875 -396.59375 C 210.015625 -393.863281 220.515625 -389.503906 231.421875 -383.515625 L 231.421875 -398.234375 L 360.609375 -398.234375 L 360.609375 -130.828125 L 389.234375 -130.828125 L 360.609375 0 L 226.515625 0 L 226.515625 -120.203125 L 199.515625 0 Z M 226.515625 -207.703125 C 226.515625 -217.515625 226.375 -225.554688 226.09375 -231.828125 C 225.820312 -238.097656 225.273438 -243.273438 224.453125 -247.359375 C 223.640625 -251.453125 222.6875 -254.722656 221.59375 -257.171875 C 220.507812 -259.628906 218.878906 -261.945312 216.703125 -264.125 C 210.703125 -270.664062 203.335938 -273.9375 194.609375 -273.9375 C 182.078125 -273.9375 171.992188 -267.53125 164.359375 -254.71875 C 156.722656 -241.90625 152.90625 -225.140625 152.90625 -204.421875 C 152.90625 -154.816406 172.257812 -130.015625 210.96875 -130.015625 C 212.0625 -130.015625 214.242188 -130.015625 217.515625 -130.015625 C 220.785156 -130.015625 223.785156 -130.285156 226.515625 -130.828125 Z M 226.515625 -207.703125 "/></g></g></g><g fill="#e46e00" fill-opacity="1"><g transform="translate(2576.744409, 968.672882)"><g><path d="M 34.34375 -264.125 L 4.09375 -264.125 L 34.34375 -398.234375 L 168.453125 -398.234375 L 168.453125 -362.25 C 176.628906 -375.332031 186.578125 -384.867188 198.296875 -390.859375 C 210.015625 -396.859375 224.867188 -399.859375 242.859375 -399.859375 C 245.585938 -399.859375 248.3125 -399.859375 251.03125 -399.859375 C 253.757812 -399.859375 257.035156 -399.316406 260.859375 -398.234375 L 231.421875 -264.125 C 223.242188 -268.488281 216.15625 -270.671875 210.15625 -270.671875 C 203.613281 -270.671875 197.34375 -269.171875 191.34375 -266.171875 C 185.34375 -263.171875 180.707031 -259.21875 177.4375 -254.3125 C 175.800781 -251.582031 174.300781 -248.582031 172.9375 -245.3125 C 171.582031 -242.039062 170.628906 -237.816406 170.078125 -232.640625 C 169.535156 -227.460938 169.128906 -220.921875 168.859375 -213.015625 C 168.585938 -205.109375 168.453125 -195.160156 168.453125 -183.171875 L 168.453125 0 L 34.34375 0 Z M 34.34375 -264.125 "/></g></g></g><path stroke-linecap="butt" transform="matrix(4.718001, 0, 0, 4.718001, 2931.975897, 138.304736)" fill="none" stroke-linejoin="miter" d="M 7.786145 91.582411 L 0.846302 91.582411 L 7.786145 60.396996 L 41.933951 60.396996 C 46.673114 60.396996 50.861693 60.608122 54.501344 61.03203 C 58.140166 61.426961 61.341834 62.089318 64.106345 63.020757 C 66.899007 63.923218 69.353039 65.136159 71.469269 66.65958 C 73.612822 68.15485 75.672751 70.001998 77.647403 72.202678 C 84.107037 79.706353 87.336855 89.861939 87.336855 102.669436 C 87.336855 120.808077 81.681156 132.824886 70.368929 138.720689 L 87.167954 175.999787 L 51.496728 175.999787 L 40.74916 142.741195 L 39.013785 142.741195 L 39.013785 175.999787 L 7.786145 175.999787 Z M 39.013785 90.567349 L 39.013785 117.60641 C 39.465016 117.719011 39.916247 117.775311 40.368305 117.775311 C 40.847686 117.775311 41.200391 117.775311 41.425592 117.775311 C 45.572774 117.775311 48.774441 116.56237 51.031422 114.136488 C 53.288403 111.710606 54.416065 108.296985 54.416065 103.896452 C 54.416065 95.010107 50.029607 90.567349 41.256691 90.567349 Z M 157.713094 175.153626 C 154.130572 176.056087 150.829551 176.705197 147.811688 177.100127 C 144.821147 177.523207 141.70393 177.735161 138.460038 177.735161 C 130.505132 177.735161 123.777243 176.380642 118.27637 173.67243 C 112.803646 170.936069 108.092633 166.634061 104.143331 160.766408 C 98.500879 152.332122 95.680067 142.910096 95.680067 132.500331 C 95.680067 126.491927 96.596603 120.892528 98.430503 115.702134 C 100.292554 110.482762 102.859187 105.969629 106.132057 102.161077 C 109.43225 98.353353 113.283027 95.348737 117.68356 93.148057 C 122.084093 90.948204 126.879557 89.847864 132.070778 89.847864 C 143.862385 89.847864 152.819105 95.164933 158.94011 105.800728 C 163.905303 114.714394 166.387485 124.884055 166.387485 136.308882 C 166.387485 136.534912 166.387485 137.084668 166.387485 137.958979 C 166.387485 138.834118 166.331184 139.722504 166.218584 140.624965 L 124.792305 140.624965 C 126.400176 145.025498 128.586781 148.15679 131.351293 150.018841 C 134.143955 151.852741 138.135483 152.769277 143.325876 152.769277 C 146.344567 152.769277 149.701889 152.458797 153.397012 151.838666 C 157.092135 151.189556 160.435381 150.287095 163.425922 149.130454 Z M 139.348424 123.82594 C 138.756442 119.792187 137.853153 116.886925 136.640212 115.109325 C 135.427271 113.304402 133.73495 112.401113 131.562419 112.401113 C 129.475167 112.401113 127.698395 113.445153 126.231275 115.532405 C 124.792305 117.592335 123.960219 120.356847 123.73419 123.82594 Z M 177.146643 144.644643 C 181.067796 147.296554 184.297613 149.20083 186.836095 150.35747 C 189.375406 151.514111 191.631559 152.092017 193.607038 152.092017 C 196.48415 152.092017 197.922293 150.992505 197.922293 148.791825 C 197.922293 147.747785 197.428837 146.803098 196.441925 145.956937 C 195.454186 145.082626 193.465459 143.882933 190.475746 142.36034 C 178.90934 136.717888 173.126137 128.466578 173.126137 117.60641 C 173.126137 113.543679 173.845622 109.820405 175.284593 106.434934 C 176.751713 103.021313 178.782665 100.101975 181.377447 97.676093 C 183.973058 95.250211 187.062125 93.345936 190.644647 91.963266 C 194.22717 90.553274 198.162397 89.847864 202.450329 89.847864 C 204.28423 89.847864 206.061002 89.974539 207.782302 90.228719 C 209.530924 90.45392 211.322599 90.79255 213.155671 91.243781 C 215.017722 91.695839 216.950148 92.330046 218.952949 93.148057 C 220.983901 93.966067 223.269032 94.953807 225.807515 96.110447 L 220.645271 120.525748 C 214.044885 116.717196 209.065618 114.81292 205.708297 114.81292 C 204.805836 114.81292 204.03005 115.109325 203.380941 115.702134 C 202.760809 116.265965 202.450329 117.0136 202.450329 117.944212 C 202.450329 118.508871 202.50663 118.974177 202.61923 119.340957 C 202.732659 119.679587 203.155739 120.116742 203.8893 120.652423 C 204.65101 121.160782 205.835801 121.879439 207.443672 122.810879 C 209.079693 123.71334 211.392974 125.038881 214.382687 126.788331 C 223.635812 131.866124 228.262375 139.426099 228.262375 149.469084 C 228.262375 153.643588 227.472514 157.438065 225.892793 160.851686 C 224.341222 164.23633 222.154617 167.212796 219.333805 169.779428 C 216.512993 172.318739 213.155671 174.279315 209.262669 175.661157 C 205.398645 177.043827 201.152938 177.735161 196.526376 177.735161 C 188.458042 177.735161 179.854027 175.887186 170.714331 172.192063 Z M 269.507333 89.847864 C 274.810328 89.847864 279.691069 90.920054 284.147903 93.063606 C 288.605564 95.207986 292.441438 98.239925 295.658008 102.161077 C 298.901901 106.082229 301.412233 110.736942 303.189833 116.125214 C 304.994756 121.484509 305.898045 127.352162 305.898045 133.728175 C 305.898045 140.18781 304.994756 146.139913 303.189833 151.584486 C 301.412233 157.000909 298.901901 161.641547 295.658008 165.506399 C 292.441438 169.370423 288.548436 172.375039 283.979002 174.518591 C 279.40874 176.662971 274.415397 177.735161 268.999802 177.735161 C 263.780431 177.735161 258.999043 176.634821 254.65481 174.434141 C 250.338727 172.234288 246.559154 169.173372 243.314433 165.252219 C 240.098691 161.331067 237.588358 156.69043 235.782608 151.330307 C 234.005836 145.942862 233.116622 140.075209 233.116622 133.728175 C 233.116622 127.352162 234.005836 121.484509 235.782608 116.125214 C 237.588358 110.736942 240.098691 106.110379 243.314433 102.245527 C 246.559154 98.381503 250.395027 95.348737 254.824539 93.148057 C 259.281372 90.948204 264.175361 89.847864 269.507333 89.847864 Z M 269.507333 118.791201 C 266.855422 118.791201 264.824471 120.158967 263.413651 122.895329 C 262.031809 125.60354 261.340474 129.496543 261.340474 134.574336 C 261.340474 139.764729 262.031809 143.728107 263.413651 146.464468 C 264.824471 149.17268 266.855422 150.526371 269.507333 150.526371 C 272.159244 150.526371 274.176121 149.17268 275.557963 146.464468 C 276.940633 143.728107 277.631968 139.87733 277.631968 134.912965 C 277.631968 124.16457 274.923756 118.791201 269.507333 118.791201 Z M 316.293735 120.018217 L 309.86225 120.018217 L 316.293735 91.582411 L 344.729541 91.582411 L 344.729541 148.284294 L 350.78017 148.284294 L 344.729541 175.999787 L 316.293735 175.999787 Z M 321.160402 56.927074 L 349.384253 56.927074 L 343.332796 85.193151 L 314.897818 85.193151 Z M 321.160402 56.927074 " stroke="#e46e00" stroke-width="4.658056" stroke-opacity="1" stroke-miterlimit="4"/><g clip-path="url(#8055ceff45)"><g clip-path="url(#3adb19a75f)"><path fill="#e46e00" d="M 2232.457031 423.285156 L 2822.523438 423.285156 L 2822.523438 504.496094 L 2232.457031 504.496094 Z M 2232.457031 423.285156 " fill-opacity="1" fill-rule="nonzero"/></g></g><g clip-path="url(#4354bd91e4)"><g clip-path="url(#2280d6893c)"><path fill="#e46e00" d="M 2289.269531 74.949219 L 2765.652344 74.949219 L 2765.652344 411.511719 L 2289.269531 411.511719 Z M 2289.269531 74.949219 " fill-opacity="1" fill-rule="nonzero"/></g></g></svg>